<svg width="18" height="18" viewBox="0 0 18 18" fill="none" xmlns="http://www.w3.org/2000/svg">
<g id="&#240;&#159;&#166;&#134; icon &#34;archive&#34;">
<path id="Vector" d="M5 4.22559H13" stroke="#115E86" stroke-width="1.82" stroke-linecap="round" stroke-linejoin="round"/>
<path id="Vector_2" d="M5 6.61328H13" stroke="#115E86" stroke-width="1.82" stroke-linecap="round" stroke-linejoin="round"/>
<path id="Vector_3" d="M6.59961 12.9775H11.3996" stroke="#115E86" stroke-width="1.82" stroke-linecap="round" stroke-linejoin="round"/>
<path id="Vector_4" d="M1.8 8.99982H1.48C1.2149 8.99982 1 9.21354 1 9.47723V16.4793C1 16.743 1.2149 16.9567 1.48 16.9567H16.52C16.7851 16.9567 17 16.743 17 16.4793V9.47723C17 9.21354 16.7851 8.99982 16.52 8.99982H16.2M1.8 8.99982V1.52038C1.8 1.25671 2.0149 1.04297 2.28 1.04297H15.72C15.9851 1.04297 16.2 1.25671 16.2 1.52038V8.99982M1.8 8.99982H16.2" stroke="#115E86" stroke-width="1.82"/>
</g>
</svg>
