<svg width="40" height="40" viewBox="0 0 40 40" fill="none" xmlns="http://www.w3.org/2000/svg">
  <mask id="mask0_188_28963" style="mask-type:alpha" maskUnits="userSpaceOnUse" x="0" y="0" width="40" height="40">
    <rect width="40" height="40" fill="#D9D9D9"/>
  </mask>
  <g mask="url(#mask0_188_28963)">
    <path d="M19.9992 25.097C19.814 25.097 19.6427 25.0669 19.4853 25.0068C19.3279 24.9466 19.1751 24.8424 19.027 24.6943L10.9714 16.6387C10.7029 16.3702 10.5732 16.0415 10.5825 15.6526C10.5917 15.2637 10.7306 14.935 10.9992 14.6665C11.2677 14.3979 11.5964 14.2637 11.9852 14.2637C12.3741 14.2637 12.7028 14.3979 12.9714 14.6665L19.9992 21.722L27.0547 14.6665C27.3232 14.3979 27.6473 14.2683 28.027 14.2776C28.4066 14.2868 28.7306 14.4257 28.9992 14.6943C29.2677 14.9628 29.402 15.2914 29.402 15.6803C29.402 16.0692 29.2677 16.3979 28.9992 16.6665L20.9714 24.6943C20.8232 24.8424 20.6705 24.9466 20.513 25.0068C20.3556 25.0669 20.1844 25.097 19.9992 25.097Z" fill="#2B2B2B"/>
  </g>
</svg>