<svg width="23" height="22" viewBox="0 0 23 22" fill="none" xmlns="http://www.w3.org/2000/svg">
<path id="border_color" d="M2.7 22C2.095 22 1.57708 21.8042 1.14625 21.4125C0.715417 21.0208 0.5 20.55 0.5 20C0.5 19.45 0.715417 18.9792 1.14625 18.5875C1.57708 18.1958 2.095 18 2.7 18H20.3C20.905 18 21.4229 18.1958 21.8538 18.5875C22.2846 18.9792 22.5 19.45 22.5 20C22.5 20.55 22.2846 21.0208 21.8538 21.4125C21.4229 21.8042 20.905 22 20.3 22H2.7ZM2.7 15V12.175C2.7 12.0417 2.7275 11.9125 2.7825 11.7875C2.8375 11.6625 2.92 11.55 3.03 11.45L15.02 0.575C15.2217 0.391667 15.4554 0.25 15.7213 0.15C15.9871 0.05 16.2667 0 16.56 0C16.8533 0 17.1375 0.05 17.4125 0.15C17.6875 0.25 17.935 0.4 18.155 0.6L19.6675 2C19.8875 2.18333 20.0479 2.4 20.1488 2.65C20.2496 2.9 20.3 3.15833 20.3 3.425C20.3 3.675 20.2496 3.92083 20.1488 4.1625C20.0479 4.40417 19.8875 4.625 19.6675 4.825L7.705 15.7C7.595 15.8 7.47125 15.875 7.33375 15.925C7.19625 15.975 7.05417 16 6.9075 16H3.8C3.48833 16 3.22708 15.9042 3.01625 15.7125C2.80542 15.5208 2.7 15.2833 2.7 15ZM16.56 4.8L18.1 3.4L16.56 2L15.02 3.4L16.56 4.8Z" fill="#115E86"/>
</svg>
