<svg width="27" height="27" viewBox="0 0 27 27" fill="none" xmlns="http://www.w3.org/2000/svg">
<g id="contact_emergency">
<mask id="mask0_315_37897" style="mask-type:alpha" maskUnits="userSpaceOnUse" x="0" y="0" width="27" height="27">
<rect id="Bounding box" x="0.5" y="0.5" width="26" height="26" fill="#D9D9D9"/>
</mask>
<g mask="url(#mask0_315_37897)">
<path id="contact_emergency_2" d="M19.1875 14H20.8125V12.1583L22.4104 13.0792L23.2229 11.6708L21.625 10.75L23.2229 9.82917L22.4104 8.42083L20.8125 9.34167V7.5H19.1875V9.34167L17.5896 8.42083L16.7771 9.82917L18.375 10.75L16.7771 11.6708L17.5896 13.0792L19.1875 12.1583V14ZM2.66667 23.75C2.07083 23.75 1.56076 23.5378 1.13646 23.1135C0.712153 22.6892 0.5 22.1792 0.5 21.5833V6.41667C0.5 5.82083 0.712153 5.31076 1.13646 4.88646C1.56076 4.46215 2.07083 4.25 2.66667 4.25H24.3333C24.9292 4.25 25.4392 4.46215 25.8635 4.88646C26.2878 5.31076 26.5 5.82083 26.5 6.41667V21.5833C26.5 22.1792 26.2878 22.6892 25.8635 23.1135C25.4392 23.5378 24.9292 23.75 24.3333 23.75H2.66667ZM10.25 16.1667C11.1528 16.1667 11.9201 15.8507 12.5521 15.2188C13.184 14.5868 13.5 13.8194 13.5 12.9167C13.5 12.0139 13.184 11.2465 12.5521 10.6146C11.9201 9.98264 11.1528 9.66667 10.25 9.66667C9.34722 9.66667 8.57986 9.98264 7.94792 10.6146C7.31597 11.2465 7 12.0139 7 12.9167C7 13.8194 7.31597 14.5868 7.94792 15.2188C8.57986 15.8507 9.34722 16.1667 10.25 16.1667ZM2.775 21.5833H17.725C16.9667 20.2292 15.9194 19.1684 14.5833 18.401C13.2472 17.6337 11.8028 17.25 10.25 17.25C8.69722 17.25 7.25278 17.6337 5.91667 18.401C4.58056 19.1684 3.53333 20.2292 2.775 21.5833Z" fill="#115E86"/>
</g>
</g>
</svg>
