<svg width="40" height="40" viewBox="0 0 40 40" fill="none" xmlns="http://www.w3.org/2000/svg">
<g id="devicon:linkedin">
<g clip-path="url(#clip0_188_29090)">
<path id="Vector" d="M37.0492 0.000151474H2.95082C2.17715 -0.00772217 1.43196 0.291639 0.87875 0.832548C0.325544 1.37346 0.00951189 2.11173 0 2.88538V37.1212C0.0112321 37.8937 0.32802 38.6303 0.881039 39.1698C1.43406 39.7093 2.17827 40.0077 2.95082 39.9999H37.0492C37.8229 40.006 38.5676 39.7056 39.1205 39.1644C39.6734 38.6231 39.9896 37.885 40 37.1113V2.87554C39.9862 2.10416 39.6685 1.36941 39.1159 0.830984C38.5634 0.292558 37.8207 -0.00601951 37.0492 0.000151474Z" fill="#0076B2"/>
<path id="Vector_2" d="M9.37903 16.6429H14.1459V32H9.37903V16.6429ZM11.7638 9C12.3105 9 12.845 9.16236 13.2995 9.46655C13.7541 9.77074 14.1083 10.2031 14.3175 10.7089C14.5266 11.2147 14.5811 11.7712 14.4743 12.3081C14.3674 12.845 14.1039 13.3381 13.7172 13.725C13.3304 14.1119 12.8377 14.3752 12.3014 14.4817C11.7651 14.5882 11.2093 14.533 10.7043 14.3231C10.1993 14.1133 9.76788 13.7582 9.4645 13.3028C9.16113 12.8473 8.99948 12.3121 9 11.7646C9.0007 11.0312 9.29219 10.328 9.81043 9.80958C10.3287 9.29119 11.0312 9 11.7638 9ZM17.1361 16.6429H21.7055V18.7513H21.7687C22.4057 17.5443 23.9587 16.2713 26.2776 16.2713C31.1051 16.2608 32 19.4418 32 23.5664V32H27.2331V24.5284C27.2331 22.7494 27.2015 20.4591 24.7562 20.4591C22.3109 20.4591 21.8951 22.3989 21.8951 24.4124V32H17.1361V16.6429Z" fill="white"/>
</g>
</g>
<defs>
<clipPath id="clip0_188_29090">
<rect width="40" height="40" rx="20" fill="white"/>
</clipPath>
</defs>
</svg>
