<svg width="24" height="24" viewBox="0 0 24 24" fill="none" xmlns="http://www.w3.org/2000/svg">
<g id="Group 2608554">
<g id="Group 2608553">
<path id="folder_shared" d="M3.2 21C2.595 21 2.07708 20.7797 1.64625 20.3391C1.21542 19.8984 1 19.3687 1 18.75V5.25C1 4.63125 1.21542 4.10156 1.64625 3.66094C2.07708 3.22031 2.595 3 3.2 3H8.8925C9.18583 3 9.46542 3.05625 9.73125 3.16875C9.99708 3.28125 10.2308 3.44062 10.4325 3.64687L12 5.25H20.8C21.405 5.25 21.9229 5.47031 22.3538 5.91094C22.7846 6.35156 23 6.88125 23 7.5V18.75C23 19.3687 22.7846 19.8984 22.3538 20.3391C21.9229 20.7797 21.405 21 20.8 21H3.2ZM10.9 17.625H19.7V17.0062C19.7 16.1625 19.2967 15.4922 18.49 14.9953C17.6833 14.4984 16.62 14.25 15.3 14.25C13.98 14.25 12.9167 14.4984 12.11 14.9953C11.3033 15.4922 10.9 16.1625 10.9 17.0062V17.625ZM15.3 13.125C15.905 13.125 16.4229 12.9047 16.8538 12.4641C17.2846 12.0234 17.5 11.4937 17.5 10.875C17.5 10.2562 17.2846 9.72656 16.8538 9.28594C16.4229 8.84531 15.905 8.625 15.3 8.625C14.695 8.625 14.1771 8.84531 13.7463 9.28594C13.3154 9.72656 13.1 10.2562 13.1 10.875C13.1 11.4937 13.3154 12.0234 13.7463 12.4641C14.1771 12.9047 14.695 13.125 15.3 13.125Z" fill="#115E86"/>
<path id="Union" fill-rule="evenodd" clip-rule="evenodd" d="M7.33333 6H5.66667V7.66667H4V9.33333H5.66667V11H7.33333V9.33333H9V7.66667H7.33333V6Z" fill="white"/>
</g>
</g>
</svg>
