<svg width="24" height="24" viewBox="0 0 24 24" fill="none" xmlns="http://www.w3.org/2000/svg">
<g id="contact_emergency">
<mask id="mask0_744_38283" style="mask-type:alpha" maskUnits="userSpaceOnUse" x="0" y="0" width="24" height="24">
<rect id="Bounding box" width="24" height="24" fill="#D9D9D9"/>
</mask>
<g mask="url(#mask0_744_38283)">
<path id="contact_emergency_2" d="M17.25 12.4609H18.75V10.7609L20.225 11.6109L20.975 10.3109L19.5 9.46094L20.975 8.61094L20.225 7.31094L18.75 8.16094V6.46094H17.25V8.16094L15.775 7.31094L15.025 8.61094L16.5 9.46094L15.025 10.3109L15.775 11.6109L17.25 10.7609V12.4609ZM2 21.4609C1.45 21.4609 0.979167 21.2651 0.5875 20.8734C0.195833 20.4818 0 20.0109 0 19.4609V5.46094C0 4.91094 0.195833 4.4401 0.5875 4.04844C0.979167 3.65677 1.45 3.46094 2 3.46094H22C22.55 3.46094 23.0208 3.65677 23.4125 4.04844C23.8042 4.4401 24 4.91094 24 5.46094V19.4609C24 20.0109 23.8042 20.4818 23.4125 20.8734C23.0208 21.2651 22.55 21.4609 22 21.4609H2ZM9 14.4609C9.83333 14.4609 10.5417 14.1693 11.125 13.5859C11.7083 13.0026 12 12.2943 12 11.4609C12 10.6276 11.7083 9.91927 11.125 9.33594C10.5417 8.7526 9.83333 8.46094 9 8.46094C8.16667 8.46094 7.45833 8.7526 6.875 9.33594C6.29167 9.91927 6 10.6276 6 11.4609C6 12.2943 6.29167 13.0026 6.875 13.5859C7.45833 14.1693 8.16667 14.4609 9 14.4609ZM2.1 19.4609H15.9C15.2 18.2109 14.2333 17.2318 13 16.5234C11.7667 15.8151 10.4333 15.4609 9 15.4609C7.56667 15.4609 6.23333 15.8151 5 16.5234C3.76667 17.2318 2.8 18.2109 2.1 19.4609Z" fill="#115E86"/>
</g>
</g>
</svg>
