<svg width="40" height="40" viewBox="0 0 40 40" fill="none" xmlns="http://www.w3.org/2000/svg">
<g id="mdi:youtube">
<rect width="40" height="40" rx="20" fill="#FF0000"/>
<path id="Vector" d="M16.0673 25.8568L26.2743 19.9997L16.0673 14.1425V25.8568ZM38.802 10.5697C39.0577 11.4873 39.2347 12.7173 39.3527 14.2792C39.4903 15.8411 39.5493 17.1882 39.5493 18.3597L39.6673 19.9997C39.6673 24.2754 39.3527 27.4187 38.802 29.4297C38.3103 31.1868 37.1697 32.3192 35.3997 32.8073C34.4753 33.0611 32.784 33.2368 30.188 33.354C27.6313 33.4906 25.291 33.5492 23.1277 33.5492L20.0007 33.6663C11.7603 33.6663 6.62732 33.354 4.60165 32.8073C2.83165 32.3192 1.69098 31.1868 1.19932 29.4297C0.943651 28.5121 0.766651 27.2821 0.648651 25.7202C0.510985 24.1582 0.451984 22.8111 0.451984 21.6397L0.333984 19.9997C0.333984 15.724 0.648651 12.5806 1.19932 10.5697C1.69098 8.81253 2.83165 7.68015 4.60165 7.19206C5.52598 6.93825 7.21732 6.76253 9.81332 6.64539C12.37 6.50872 14.7103 6.45015 16.8737 6.45015L20.0007 6.33301C28.241 6.33301 33.374 6.64539 35.3997 7.19206C37.1697 7.68015 38.3103 8.81253 38.802 10.5697Z" fill="#FF0000"/>
<path id="Vector_2" d="M15 27L28 20L15 13V27Z" fill="white"/>
</g>
</svg>
