<svg width="24" height="25" viewBox="0 0 24 25" fill="none" xmlns="http://www.w3.org/2000/svg">
  <mask id="mask0_237_30294" style="mask-type:alpha" maskUnits="userSpaceOnUse" x="0" y="0" width="24" height="25">
    <rect y="0.150391" width="24" height="24" fill="#D9D9D9"/>
  </mask>
  <g mask="url(#mask0_237_30294)">
    <path d="M5 19.1504C4.71667 19.1504 4.47917 19.0546 4.2875 18.8629C4.09583 18.6712 4 18.4337 4 18.1504C4 17.8671 4.09583 17.6296 4.2875 17.4379C4.47917 17.2462 4.71667 17.1504 5 17.1504H6V10.1504C6 8.76706 6.41667 7.53789 7.25 6.46289C8.08333 5.38789 9.16667 4.68372 10.5 4.35039V3.65039C10.5 3.23372 10.6458 2.87956 10.9375 2.58789C11.2292 2.29622 11.5833 2.15039 12 2.15039C12.4167 2.15039 12.7708 2.29622 13.0625 2.58789C13.3542 2.87956 13.5 3.23372 13.5 3.65039V4.35039C14.8333 4.68372 15.9167 5.38789 16.75 6.46289C17.5833 7.53789 18 8.76706 18 10.1504V17.1504H19C19.2833 17.1504 19.5208 17.2462 19.7125 17.4379C19.9042 17.6296 20 17.8671 20 18.1504C20 18.4337 19.9042 18.6712 19.7125 18.8629C19.5208 19.0546 19.2833 19.1504 19 19.1504H5ZM12 22.1504C11.45 22.1504 10.9792 21.9546 10.5875 21.5629C10.1958 21.1712 10 20.7004 10 20.1504H14C14 20.7004 13.8042 21.1712 13.4125 21.5629C13.0208 21.9546 12.55 22.1504 12 22.1504Z" fill="#115E86"/>
  </g>
</svg>