<svg width="40" height="40" viewBox="0 0 40 40" fill="none" xmlns="http://www.w3.org/2000/svg">
  <mask id="mask0_188_28971" style="mask-type:alpha" maskUnits="userSpaceOnUse" x="0" y="0" width="40" height="40">
    <rect width="40" height="40" fill="#D9D9D9"/>
  </mask>
  <g mask="url(#mask0_188_28971)">
    <path d="M19.9993 19.9721C18.166 19.9721 16.6429 19.3656 15.4299 18.1527C14.2169 16.9397 13.6105 15.4165 13.6105 13.5832C13.6105 11.7499 14.2169 10.2267 15.4299 9.01379C16.6429 7.80082 18.166 7.19434 19.9993 7.19434C21.8327 7.19434 23.3558 7.80082 24.5688 9.01379C25.7818 10.2267 26.3882 11.7499 26.3882 13.5832C26.3882 15.4165 25.7818 16.9397 24.5688 18.1527C23.3558 19.3656 21.8327 19.9721 19.9993 19.9721ZM6.66602 30.5555V29.1665C6.66602 28.148 6.92296 27.2569 7.43685 26.493C7.95074 25.7291 8.61972 25.148 9.44381 24.7499C11.2586 23.9073 13.0318 23.2754 14.7632 22.854C16.4947 22.4328 18.2401 22.2221 19.9993 22.2221C21.7586 22.2221 23.4993 22.4374 25.2216 22.868C26.9438 23.2985 28.7123 23.9258 30.5271 24.7499C31.3697 25.148 32.048 25.7291 32.5618 26.493C33.0757 27.2569 33.3327 28.148 33.3327 29.1665V30.5555C33.3327 31.324 33.0618 31.979 32.5202 32.5207C31.9785 33.0624 31.3234 33.3332 30.5549 33.3332H9.44377C8.67527 33.3332 8.02018 33.0624 7.47852 32.5207C6.93685 31.979 6.66602 31.324 6.66602 30.5555Z" fill="white"/>
  </g>
</svg>