<svg width="24" height="24" viewBox="0 0 24 24" fill="none" xmlns="http://www.w3.org/2000/svg">
<g id="ph:copyright-bold">
<path id="Vector" d="M12 2C9.99747 2 8.0399 2.59382 6.37486 3.70637C4.70981 4.81892 3.41206 6.40023 2.64572 8.25033C1.87939 10.1004 1.67888 12.1362 2.06955 14.1003C2.46023 16.0643 3.42454 17.8685 4.84055 19.2845C6.25656 20.7005 8.06066 21.6648 10.0247 22.0555C11.9888 22.4461 14.0246 22.2456 15.8747 21.4793C17.7248 20.7129 19.3061 19.4152 20.4186 17.7501C21.5312 16.0851 22.125 14.1275 22.125 12.125C22.122 9.4406 21.0543 6.86699 19.1562 4.96883C17.258 3.07067 14.6844 2.00298 12 2ZM12 20C10.4425 20 8.91993 19.5381 7.62489 18.6728C6.32985 17.8075 5.32049 16.5776 4.72445 15.1386C4.12841 13.6997 3.97246 12.1163 4.27632 10.5887C4.58018 9.06106 5.3302 7.65787 6.43154 6.55653C7.53288 5.4552 8.93607 4.70517 10.4637 4.40132C11.9913 4.09746 13.5747 4.25341 15.0136 4.84945C16.4526 5.44549 17.6825 6.45485 18.5478 7.74988C19.4131 9.04492 19.875 10.5675 19.875 12.125C19.8728 14.2129 19.0424 16.2146 17.566 17.691C16.0896 19.1674 14.0879 19.9978 12 20ZM15.8991 15.0509C15.285 15.8691 14.429 16.4734 13.4524 16.7782C12.4759 17.0829 11.4281 17.0728 10.4577 16.7491C9.48721 16.4254 8.64316 15.8046 8.04506 14.9746C7.44696 14.1447 7.12512 13.1476 7.12512 12.1245C7.12512 11.1015 7.44696 10.1044 8.04506 9.27443C8.64316 8.44445 9.48721 7.82366 10.4577 7.49998C11.4281 7.17629 12.4759 7.16612 13.4524 7.47088C14.429 7.77565 15.285 8.37992 15.8991 9.19812C15.991 9.31593 16.0586 9.45089 16.0979 9.59511C16.1371 9.73933 16.1472 9.88992 16.1276 10.0381C16.108 10.1863 16.059 10.329 15.9836 10.4581C15.9082 10.5871 15.8078 10.6998 15.6884 10.7897C15.5689 10.8795 15.4327 10.9446 15.2878 10.9812C15.1429 11.0178 14.9922 11.0252 14.8444 11.0028C14.6966 10.9805 14.5547 10.929 14.4271 10.8512C14.2994 10.7735 14.1886 10.6711 14.1009 10.55C13.7704 10.1092 13.3095 9.78367 12.7836 9.6194C12.2578 9.45513 11.6935 9.46048 11.1708 9.63471C10.6482 9.80893 10.1936 10.1432 9.87143 10.5901C9.54929 11.0371 9.37594 11.5741 9.37594 12.125C9.37594 12.6759 9.54929 13.2129 9.87143 13.6599C10.1936 14.1068 10.6482 14.4411 11.1708 14.6153C11.6935 14.7895 12.2578 14.7949 12.7836 14.6306C13.3095 14.4663 13.7704 14.1408 14.1009 13.7C14.1878 13.5771 14.2985 13.473 14.4263 13.3936C14.5542 13.3143 14.6966 13.2614 14.8453 13.2381C14.9939 13.2148 15.1457 13.2215 15.2917 13.258C15.4377 13.2944 15.575 13.3597 15.6953 13.4501C15.8156 13.5405 15.9165 13.6541 15.9921 13.7841C16.0677 13.9142 16.1165 14.0582 16.1355 14.2074C16.1545 14.3567 16.1434 14.5083 16.1028 14.6531C16.0621 14.798 15.9929 14.9333 15.8991 15.0509Z" fill="#2B2B2B"/>
</g>
</svg>
