<svg width="24" height="25" viewBox="0 0 24 25" fill="none" xmlns="http://www.w3.org/2000/svg">
<g id="search">
<mask id="mask0_350_47991" style="mask-type:alpha" maskUnits="userSpaceOnUse" x="0" y="0" width="24" height="25">
<rect id="Bounding box" y="0.150391" width="24" height="24" fill="#D9D9D9"/>
</mask>
<g mask="url(#mask0_350_47991)">
<path id="search_2" d="M9.46668 16.0005C7.65933 16.0005 6.12971 15.3741 4.87783 14.1213C3.62594 12.8685 3 11.3505 3 9.56714C3 7.78381 3.62639 6.26575 4.87918 5.01296C6.13194 3.76018 7.65278 3.13379 9.44168 3.13379C11.2306 3.13379 12.7486 3.76018 13.9958 5.01296C15.2431 6.26575 15.8667 7.78464 15.8667 9.56964C15.8667 10.2902 15.75 10.981 15.5167 11.6421C15.2833 12.3032 14.9445 12.9116 14.5 13.4671L20.4 19.3338C20.5611 19.49 20.6417 19.6887 20.6417 19.9301C20.6417 20.1715 20.5611 20.3727 20.4 20.5338C20.2389 20.6949 20.0377 20.7755 19.7963 20.7755C19.555 20.7755 19.3562 20.6949 19.2 20.5338L13.3167 14.6505C12.8167 15.0727 12.2363 15.4032 11.5757 15.6421C10.915 15.881 10.212 16.0005 9.46668 16.0005ZM9.45 14.3338C10.7695 14.3338 11.891 13.8685 12.8146 12.938C13.7382 12.0074 14.2 10.8838 14.2 9.56714C14.2 8.25046 13.7382 7.12684 12.8146 6.19629C11.891 5.26574 10.7695 4.80046 9.45 4.80046C8.1213 4.80046 6.9919 5.26574 6.0618 6.19629C5.1317 7.12684 4.66665 8.25046 4.66665 9.56714C4.66665 10.8838 5.1317 12.0074 6.0618 12.938C6.9919 13.8685 8.1213 14.3338 9.45 14.3338Z" fill="#7D7D7D"/>
</g>
</g>
</svg>
