<svg width="40" height="40" viewBox="0 0 40 40" fill="none" xmlns="http://www.w3.org/2000/svg">
<g id="skill-icons:instagram">
<g clip-path="url(#clip0_188_29101)">
<rect width="40" height="40" rx="20" fill="white"/>
<g id="Group">
<path id="Vector" d="M30.625 0H9.375C4.19733 0 0 4.19733 0 9.375V30.625C0 35.8027 4.19733 40 9.375 40H30.625C35.8027 40 40 35.8027 40 30.625V9.375C40 4.19733 35.8027 0 30.625 0Z" fill="url(#paint0_radial_188_29101)"/>
<path id="Vector_2" d="M30.625 0H9.375C4.19733 0 0 4.19733 0 9.375V30.625C0 35.8027 4.19733 40 9.375 40H30.625C35.8027 40 40 35.8027 40 30.625V9.375C40 4.19733 35.8027 0 30.625 0Z" fill="url(#paint1_radial_188_29101)"/>
<path id="Vector_3" d="M20.0004 7.2002C16.5241 7.2002 16.0878 7.21543 14.7225 7.27751C13.3599 7.33997 12.4297 7.55565 11.6159 7.87219C10.7739 8.1991 10.0598 8.63647 9.34834 9.34814C8.63627 10.0597 8.1989 10.7738 7.87096 11.6154C7.55352 12.4295 7.33759 13.36 7.27627 14.722C7.21522 16.0874 7.19922 16.5239 7.19922 20.0002C7.19922 23.4765 7.21458 23.9115 7.27653 25.2767C7.33925 26.6394 7.55493 27.5695 7.87122 28.3833C8.19839 29.2253 8.63576 29.9394 9.34744 30.6508C10.0587 31.3629 10.7729 31.8013 11.6142 32.1282C12.4287 32.4447 13.359 32.6604 14.7214 32.7229C16.0868 32.785 16.5227 32.8002 19.9988 32.8002C23.4754 32.8002 23.9104 32.785 25.2756 32.7229C26.6383 32.6604 27.5695 32.4447 28.384 32.1282C29.2256 31.8013 29.9387 31.3629 30.6498 30.6508C31.3619 29.9394 31.7992 29.2253 32.1272 28.3837C32.4418 27.5695 32.6579 26.6391 32.7219 25.2769C32.7832 23.9117 32.7992 23.4765 32.7992 20.0002C32.7992 16.5239 32.7832 16.0877 32.7219 14.7223C32.6579 13.3596 32.4418 12.4296 32.1272 11.6158C31.7992 10.7738 31.3619 10.0597 30.6498 9.34814C29.9379 8.63621 29.2258 8.19884 28.3832 7.87232C27.5672 7.55565 26.6365 7.33984 25.2738 7.27751C23.9085 7.21543 23.4738 7.2002 19.9964 7.2002H20.0004ZM18.8521 9.50686C19.1929 9.50635 19.5732 9.50686 20.0004 9.50686C23.4181 9.50686 23.8231 9.51915 25.1727 9.58046C26.4207 9.63755 27.0981 9.84606 27.5493 10.0213C28.1467 10.2532 28.5725 10.5306 29.0203 10.9787C29.4683 11.4267 29.7455 11.8533 29.9781 12.4507C30.1533 12.9013 30.3621 13.5786 30.4189 14.8266C30.4802 16.176 30.4936 16.5812 30.4936 19.9973C30.4936 23.4133 30.4802 23.8187 30.4189 25.1679C30.3618 26.4159 30.1533 27.0932 29.9781 27.5439C29.7462 28.1413 29.4683 28.5666 29.0203 29.0144C28.5723 29.4624 28.1469 29.7396 27.5493 29.9717C27.0986 30.1477 26.4207 30.3557 25.1727 30.4128C23.8233 30.4741 23.4181 30.4874 20.0004 30.4874C16.5825 30.4874 16.1774 30.4741 14.8281 30.4128C13.5801 30.3552 12.9028 30.1467 12.4512 29.9714C11.8539 29.7394 11.4272 29.4621 10.9792 29.0141C10.5312 28.5661 10.2539 28.1405 10.0214 27.5429C9.84613 27.0922 9.63736 26.4149 9.58053 25.1669C9.51922 23.8175 9.50693 23.4123 9.50693 19.9941C9.50693 16.576 9.51922 16.1728 9.58053 14.8234C9.63762 13.5754 9.84613 12.8981 10.0214 12.4469C10.2534 11.8495 10.5312 11.4229 10.9793 10.9749C11.4273 10.5269 11.8539 10.2495 12.4513 10.0171C12.9025 9.84106 13.5801 9.63307 14.8281 9.57572C16.0089 9.52235 16.4665 9.50635 18.8521 9.50366V9.50686ZM26.833 11.6322C25.985 11.6322 25.297 12.3195 25.297 13.1676C25.297 14.0156 25.985 14.7036 26.833 14.7036C27.681 14.7036 28.369 14.0156 28.369 13.1676C28.369 12.3196 27.681 11.6316 26.833 11.6316V11.6322ZM20.0004 13.4268C16.3703 13.4268 13.4271 16.37 13.4271 20.0002C13.4271 23.6304 16.3703 26.5722 20.0004 26.5722C23.6306 26.5722 26.5728 23.6304 26.5728 20.0002C26.5728 16.3702 23.6303 13.4268 20.0001 13.4268H20.0004ZM20.0004 15.7335C22.3567 15.7335 24.2671 17.6436 24.2671 20.0002C24.2671 22.3565 22.3567 24.2669 20.0004 24.2669C17.6439 24.2669 15.7337 22.3565 15.7337 20.0002C15.7337 17.6436 17.6439 15.7335 20.0004 15.7335Z" fill="white"/>
</g>
</g>
</g>
<defs>
<radialGradient id="paint0_radial_188_29101" cx="0" cy="0" r="1" gradientUnits="userSpaceOnUse" gradientTransform="translate(10.625 43.0808) rotate(-90) scale(39.643 36.8711)">
<stop stop-color="#FFDD55"/>
<stop offset="0.1" stop-color="#FFDD55"/>
<stop offset="0.5" stop-color="#FF543E"/>
<stop offset="1" stop-color="#C837AB"/>
</radialGradient>
<radialGradient id="paint1_radial_188_29101" cx="0" cy="0" r="1" gradientUnits="userSpaceOnUse" gradientTransform="translate(-6.70016 2.88141) rotate(78.681) scale(17.7206 73.045)">
<stop stop-color="#3771C8"/>
<stop offset="0.128" stop-color="#3771C8"/>
<stop offset="1" stop-color="#6600FF" stop-opacity="0"/>
</radialGradient>
<clipPath id="clip0_188_29101">
<rect width="40" height="40" rx="20" fill="white"/>
</clipPath>
</defs>
</svg>
