<svg width="24" height="24" viewBox="0 0 24 24" fill="none" xmlns="http://www.w3.org/2000/svg">
  <mask id="mask0_237_30357" style="mask-type:alpha" maskUnits="userSpaceOnUse" x="0" y="0" width="24" height="24">
    <rect width="24" height="24" fill="#D9D9D9"/>
  </mask>
  <g mask="url(#mask0_237_30357)">
    <mask id="mask1_237_30357" style="mask-type:alpha" maskUnits="userSpaceOnUse" x="0" y="1" width="24" height="24">
      <rect y="1" width="24" height="24" fill="#D9D9D9"/>
    </mask>
    <g mask="url(#mask1_237_30357)">
      <path d="M5 22C4.45 22 3.97917 21.8042 3.5875 21.4125C3.19583 21.0208 3 20.55 3 20V6C3 5.45 3.19583 4.97917 3.5875 4.5875C3.97917 4.19583 4.45 4 5 4H19C19.55 4 20.0208 4.19583 20.4125 4.5875C20.8042 4.97917 21 5.45 21 6H13C11.8167 6 10.8542 6.37083 10.1125 7.1125C9.37083 7.85417 9 8.81667 9 10V16C9 17.1833 9.37083 18.1458 10.1125 18.8875C10.8542 19.6292 11.8167 20 13 20H21C21 20.55 20.8042 21.0208 20.4125 21.4125C20.0208 21.8042 19.55 22 19 22H5ZM13 18C12.45 18 11.9792 17.8042 11.5875 17.4125C11.1958 17.0208 11 16.55 11 16V10C11 9.45 11.1958 8.97917 11.5875 8.5875C11.9792 8.19583 12.45 8 13 8H20C20.55 8 21.0208 8.19583 21.4125 8.5875C21.8042 8.97917 22 9.45 22 10V16C22 16.55 21.8042 17.0208 21.4125 17.4125C21.0208 17.8042 20.55 18 20 18H13ZM16 14.5C16.4333 14.5 16.7917 14.3583 17.075 14.075C17.3583 13.7917 17.5 13.4333 17.5 13C17.5 12.5667 17.3583 12.2083 17.075 11.925C16.7917 11.6417 16.4333 11.5 16 11.5C15.5667 11.5 15.2083 11.6417 14.925 11.925C14.6417 12.2083 14.5 12.5667 14.5 13C14.5 13.4333 14.6417 13.7917 14.925 14.075C15.2083 14.3583 15.5667 14.5 16 14.5Z" fill="#115E86"/>
    </g>
  </g>
</svg>